<svg xmlns="http://www.w3.org/2000/svg" xmlns:xlink="http://www.w3.org/1999/xlink" version="1.1" id="Layer_1" x="0px" y="0px" viewBox="0 0 64 100" style="enable-background:new 0 0 64 100;" xml:space="preserve">
<style type="text/css">
	.sc0{fill:#FFFFFF;stroke:#231F20;stroke-width:3;stroke-miterlimit:10;}
	.sc1{fill:#788a62;}
	.sc2{fill:#FFFFFF;}
	.sc3{fill:none;stroke:#231F20;stroke-width:3;stroke-miterlimit:10;}
	.sc4{fill:none;stroke:#231F20;stroke-width:2;stroke-miterlimit:10;}
	.sc5{fill:none;stroke:#231F20;stroke-width:1.5;stroke-miterlimit:10;}
</style>
<g>
	<path class="sc0" d="M2,40v28c0,16.6,13.4,30,30,30s30-13.4,30-30V40v-8C62,15.4,48.6,2,32,2S2,15.4,2,32V40z"/>
	<g>
		<path class="sc1" d="M34,18c1.7,0,3,1.3,3,3v19v5c0,1.7-1.3,3-3,3h-4c-1.7,0-3-1.3-3-3v-5V21c0-1.7,1.3-3,3-3h2H34z"/>
		<path class="sc2" d="M62,32v8H37V21c0-1.7-1.3-3-3-3h-2V2C48.6,2,62,15.4,62,32z"/>
		<path class="sc2" d="M32,2v16h-2c-1.7,0-3,1.3-3,3v19H2v-8C2,15.4,15.4,2,32,2z"/>
	</g>
	<g>
		<path class="sc3" d="M2,40v28c0,16.6,13.4,30,30,30s30-13.4,30-30V40v-8C62,15.4,48.6,2,32,2S2,15.4,2,32V40z"/>
		<line class="sc4" x1="37" y1="40" x2="62" y2="40"/>
		<line class="sc4" x1="2" y1="40" x2="27" y2="40"/>
		<line class="sc4" x1="32" y1="2" x2="32" y2="18"/>
		<path class="sc5" d="M27,40v5c0,1.7,1.3,3,3,3h4c1.7,0,3-1.3,3-3v-5V21c0-1.7-1.3-3-3-3h-2h-2c-1.7,0-3,1.3-3,3V40z"/>
	</g>
</g>
</svg>